<?xml version="1.0" encoding="utf-8"?>
<!-- Generator: Adobe Illustrator 15.1.0, SVG Export Plug-In . SVG Version: 6.00 Build 0)  -->
<!DOCTYPE svg PUBLIC "-//W3C//DTD SVG 1.1//EN" "http://www.w3.org/Graphics/SVG/1.1/DTD/svg11.dtd">
<svg version="1.1" id="Layer_1" xmlns="http://www.w3.org/2000/svg" xmlns:xlink="http://www.w3.org/1999/xlink" x="0px" y="0px"
	 width="250px" height="250px" viewBox="0 0 250 250" enable-background="new 0 0 250 250" xml:space="preserve">
<g>
	<path fill="#FFFFFF" d="M116.156,193.157c-4.76-1.898-17.02-8.054-28.023-24.158c-13.089-19.155-19.726-45.322-19.726-77.771
		v-18.24l17.685,0.859c0.843-0.025,2.711-0.105,3.781-0.149c2.508-0.106,3.047-0.128,3.615-0.128c6.351,0,12.318-2.477,16.808-6.972
		l12.298-12.321l12.297,12.321c4.487,4.496,10.456,6.972,16.806,6.972c0.571,0,1.109,0.021,3.616,0.128
		c1.07,0.044,2.939,0.124,3.78,0.149l17.685-0.859v18.24c0,32.449-6.637,58.615-19.725,77.771
		c-11.004,16.104-23.262,22.259-28.023,24.158l-6.436,2.567L116.156,193.157z"/>
	<path fill="#FD2727" d="M159.093,73.848c-0.841-0.025-2.71-0.105-3.78-0.149c-2.507-0.106-3.045-0.128-3.616-0.128
		c-6.35,0-12.318-2.477-16.806-6.972l-12.297-12.321l-12.298,12.321c-4.489,4.496-10.457,6.972-16.808,6.972
		c-0.568,0-1.107,0.021-3.615,0.128c-1.07,0.044-2.938,0.124-3.781,0.149l-17.685-0.859v18.24c0,32.449,6.637,58.615,19.726,77.771
		c11.004,16.104,23.264,22.259,28.023,24.158l6.438,2.567l6.436-2.567c4.762-1.898,17.02-8.054,28.023-24.158
		c13.088-19.155,19.725-45.322,19.725-77.771v-18.24L159.093,73.848z M122.594,167.637c-3.687-1.471-29.773-13.838-29.773-69.389
		c0.49,0.023,5.733-0.229,6.232-0.229c2.61,0,5.146-0.31,7.585-0.88v39.487h9.404v-16.373c0.723-2.949,3.373-5.05,6.453-5.05
		c3.665,0,6.647,2.983,6.647,6.648v14.276h9.404v-14.276c0-8.851-7.2-16.052-16.052-16.052c-2.283,0-4.47,0.482-6.453,1.353V93.351
		c2.393-1.425,4.595-3.137,6.552-5.096c6.02,6.031,14.344,9.765,23.539,9.765c0.499,0,5.742,0.252,6.232,0.229
		C152.365,153.799,126.277,166.167,122.594,167.637z"/>
</g>
</svg>
