<?xml version="1.0" encoding="utf-8"?>
<!-- Generator: Adobe Illustrator 15.1.0, SVG Export Plug-In . SVG Version: 6.00 Build 0)  -->
<!DOCTYPE svg PUBLIC "-//W3C//DTD SVG 1.1//EN" "http://www.w3.org/Graphics/SVG/1.1/DTD/svg11.dtd">
<svg version="1.1" id="Layer_1" xmlns="http://www.w3.org/2000/svg" xmlns:xlink="http://www.w3.org/1999/xlink" x="0px" y="0px"
	 width="399.791px" height="195.335px" viewBox="0 0 399.791 195.335" enable-background="new 0 0 399.791 195.335"
	 xml:space="preserve">
<g>
	<path fill="#FFFFFF" d="M81.826,144.714c-3.287-1.311-11.755-5.563-19.354-16.686c-9.04-13.229-13.625-31.302-13.625-53.713V61.717
		l12.215,0.593c0.581-0.017,1.872-0.072,2.611-0.103c1.73-0.073,2.104-0.088,2.496-0.088c4.386,0,8.509-1.709,11.609-4.815
		l8.493-8.509l8.494,8.509c3.1,3.106,7.222,4.815,11.608,4.815c0.394,0,0.766,0.015,2.498,0.088c0.739,0.031,2.03,0.086,2.61,0.103
		l12.214-0.593v12.598c0,22.411-4.583,40.483-13.623,53.713c-7.6,11.123-16.067,15.375-19.355,16.686l-4.446,1.774L81.826,144.714z"
		/>
	<path fill="#FD2727" d="M111.481,62.31c-0.581-0.017-1.872-0.072-2.61-0.103c-1.731-0.073-2.104-0.088-2.498-0.088
		c-4.386,0-8.508-1.709-11.608-4.815l-8.494-8.509l-8.493,8.509c-3.1,3.106-7.223,4.815-11.609,4.815
		c-0.393,0-0.766,0.015-2.496,0.088c-0.739,0.031-2.03,0.086-2.611,0.103l-12.215-0.593v12.598c0,22.411,4.584,40.483,13.625,53.713
		c7.6,11.123,16.067,15.375,19.354,16.686l4.446,1.774l4.446-1.774c3.288-1.311,11.755-5.563,19.355-16.686
		c9.04-13.229,13.623-31.302,13.623-53.713V61.717L111.481,62.31z M87.502,126.174c-2.462-0.982-19.888-9.243-19.888-46.35
		c0.328,0.016,3.831-0.154,4.164-0.154c1.744,0,3.438-0.208,5.066-0.587v26.376h6.282V94.523c0.482-1.97,2.254-3.373,4.311-3.373
		c2.448,0,4.441,1.992,4.441,4.44v9.537h6.281V95.59c0-5.912-4.81-10.722-10.722-10.722c-1.525,0-2.986,0.322-4.311,0.904v-9.22
		c1.599-0.952,3.07-2.095,4.376-3.404c4.021,4.029,9.582,6.522,15.724,6.522c0.333,0,3.835,0.169,4.164,0.154
		C107.39,116.931,89.963,125.191,87.502,126.174z"/>
	<g>
		<path fill="#FD2727" d="M164.664,87.77c-2.512,0-4.919,0.53-7.103,1.489V73.217h-10.349v48.477h10.349v-18.018
			c0.795-3.246,3.713-5.558,7.103-5.558c4.034,0,7.317,3.282,7.317,7.315v15.712h10.349v-15.712
			C182.33,95.695,174.405,87.77,164.664,87.77z"/>
		<g>
			<path fill="#FD2727" d="M189.579,76.679c2.689-0.538,8.068-1.008,13.245-1.008c6.253,0,10.087,0.605,13.381,2.555
				c3.16,1.681,5.378,4.773,5.378,8.942c0,3.967-2.353,7.665-7.396,9.615v0.135c5.178,1.345,9.01,5.312,9.01,11.16
				c0,4.169-1.883,7.396-4.707,9.614c-3.294,2.623-8.807,4.103-17.817,4.103c-5.042,0-8.808-0.337-11.093-0.672V76.679z
				 M199.731,93.96h3.362c5.446,0,8.271-2.22,8.271-5.581c0-3.429-2.623-5.245-7.262-5.245c-2.285,0-3.563,0.135-4.371,0.335V93.96z
				 M199.731,114.063c1.009,0.201,2.22,0.201,3.968,0.201c4.639,0,8.74-1.816,8.74-6.588c0-4.572-4.102-6.389-9.21-6.389h-3.498
				V114.063z"/>
			<path fill="#FD2727" d="M229.853,73.587h10.219v47.737h-10.219V73.587z"/>
			<path fill="#FD2727" d="M263.402,122.064c-9.613,0-17.009-6.32-17.009-16.944c0-10.623,6.991-17.413,17.614-17.413
				c10.02,0,16.742,6.925,16.742,16.876c0,11.968-8.539,17.481-17.279,17.481H263.402z M263.604,114.735
				c4.035,0,6.522-3.967,6.522-9.884c0-4.842-1.883-9.816-6.522-9.816c-4.841,0-6.723,4.974-6.723,9.883
				c0,5.581,2.353,9.816,6.655,9.816H263.604z"/>
			<path fill="#FD2727" d="M311.947,120.518c-1.815,0.873-5.246,1.547-9.145,1.547c-10.623,0-17.414-6.521-17.414-16.878
				c0-9.614,6.589-17.479,18.826-17.479c2.688,0,5.647,0.471,7.799,1.277l-1.613,7.597c-1.21-0.538-3.026-1.008-5.715-1.008
				c-5.379,0-8.876,3.833-8.808,9.212c0,6.051,4.034,9.278,9.01,9.278c2.42,0,4.303-0.403,5.85-1.075L311.947,120.518z"/>
			<path fill="#FD2727" d="M327.814,102.362h0.134c0.741-1.41,1.547-2.755,2.354-3.966l6.657-9.951h12.304l-11.767,13.313
				l13.447,19.565h-12.572l-8.001-13.515l-2.556,3.295v10.22h-10.22V73.587h10.22V102.362z"/>
		</g>
	</g>
</g>
</svg>
