<?xml version="1.0" encoding="utf-8"?>
<!-- Generator: Adobe Illustrator 15.1.0, SVG Export Plug-In . SVG Version: 6.00 Build 0)  -->
<!DOCTYPE svg PUBLIC "-//W3C//DTD SVG 1.1//EN" "http://www.w3.org/Graphics/SVG/1.1/DTD/svg11.dtd">
<svg version="1.1" id="Layer_1" xmlns="http://www.w3.org/2000/svg" xmlns:xlink="http://www.w3.org/1999/xlink" x="0px" y="0px"
	 width="399.791px" height="195.335px" viewBox="0 0 399.791 195.335" enable-background="new 0 0 399.791 195.335"
	 xml:space="preserve">
<g>
	<g>
		<g>
			<g>
				<path fill="#FD2727" d="M149.042,86.681c-2.768,0-5.419,0.585-7.824,1.642V70.649h-11.401v53.404h11.401v-19.848
					c0.876-3.577,4.091-6.125,7.824-6.125c4.443,0,8.062,3.616,8.062,8.06v17.309h11.399v-17.309
					C168.502,95.412,159.773,86.681,149.042,86.681z"/>
			</g>
			<g>
				<path fill="#FD2727" d="M176.591,74.319h16.703c10.11,0,17.977,2.771,17.977,12.135c0,4.344-2.397,9.063-6.367,10.56v0.3
					c4.943,1.273,8.764,4.944,8.764,11.46c0,9.962-8.39,14.381-18.95,14.381h-18.126V74.319z M192.769,93.868
					c5.393,0,7.715-2.246,7.715-5.767c0-3.82-2.472-5.243-7.64-5.243h-5.243v11.01H192.769z M193.818,114.616
					c5.992,0,9.063-2.098,9.063-6.592c0-4.268-2.997-5.992-9.063-5.992h-6.217v12.584H193.818z"/>
				<path fill="#FD2727" d="M221.007,111.62V70.649h11.011v41.421c0,2.32,1.049,3.07,1.947,3.07c0.45,0,0.749,0,1.349-0.149
					l1.348,8.163c-1.198,0.525-3.07,0.899-5.543,0.899C223.554,124.054,221.007,119.11,221.007,111.62z"/>
				<path fill="#FD2727" d="M240.257,104.579c0-12.358,8.688-19.475,18.126-19.475c9.362,0,18.051,7.116,18.051,19.475
					c0,12.359-8.688,19.475-18.051,19.475C248.946,124.054,240.257,116.938,240.257,104.579z M265.199,104.579
					c0-6.441-2.322-10.561-6.815-10.561c-4.569,0-6.816,4.119-6.816,10.561c0,6.442,2.247,10.562,6.816,10.562
					C262.876,115.141,265.199,111.021,265.199,104.579z"/>
				<path fill="#FD2727" d="M281.828,104.579c0-12.358,9.063-19.475,19.324-19.475c4.568,0,8.089,1.647,10.86,3.97l-5.168,7.116
					c-1.798-1.499-3.296-2.172-5.019-2.172c-5.317,0-8.688,4.119-8.688,10.561c0,6.442,3.52,10.562,8.314,10.562
					c2.396,0,4.718-1.199,6.665-2.697l4.346,7.19c-3.672,3.222-8.24,4.42-12.285,4.42
					C289.841,124.054,281.828,116.938,281.828,104.579z"/>
				<path fill="#FD2727" d="M318.978,70.649h10.711v30.11h0.3l11.759-14.755h11.984l-13.033,15.278l14.007,21.871h-11.909
					l-8.389-14.455l-4.719,5.317v9.138h-10.711V70.649z"/>
			</g>
		</g>
	</g>
	<g>
		<path fill="#FFFFFF" d="M76.849,143.007c-3.166-1.262-11.322-5.358-18.642-16.07C49.5,114.193,45.085,96.787,45.085,75.201V63.066
			l11.765,0.571c0.56-0.016,1.803-0.069,2.516-0.1c1.666-0.07,2.025-0.085,2.403-0.085c4.225,0,8.196-1.646,11.182-4.638
			l8.181-8.196l8.181,8.196c2.985,2.991,6.956,4.638,11.181,4.638c0.378,0,0.737,0.015,2.405,0.085
			c0.712,0.03,1.955,0.084,2.514,0.1l11.766-0.571v12.135c0,21.586-4.415,38.992-13.121,51.735
			c-7.32,10.712-15.477,14.809-18.643,16.07l-4.282,1.709L76.849,143.007z"/>
		<path fill="#FD2727" d="M105.412,63.638c-0.559-0.016-1.802-0.069-2.514-0.1c-1.668-0.07-2.027-0.085-2.405-0.085
			c-4.225,0-8.195-1.646-11.181-4.638l-8.181-8.196l-8.181,8.196c-2.985,2.991-6.957,4.638-11.182,4.638
			c-0.378,0-0.737,0.015-2.403,0.085c-0.713,0.03-1.956,0.084-2.516,0.1l-11.765-0.571v12.135c0,21.586,4.415,38.992,13.122,51.735
			c7.319,10.712,15.476,14.809,18.642,16.07l4.282,1.709l4.282-1.709c3.166-1.262,11.322-5.358,18.643-16.07
			c8.706-12.743,13.121-30.149,13.121-51.735V63.066L105.412,63.638z M82.316,125.149c-2.371-0.946-19.155-8.902-19.155-44.642
			c0.316,0.015,3.689-0.149,4.011-0.149c1.682,0,3.31-0.214,4.88-0.581v25.42h6.05V94.664c0.465-1.897,2.172-3.248,4.152-3.248
			c2.358,0,4.277,1.919,4.277,4.276v9.185h6.05v-9.185c0-5.693-4.632-10.327-10.327-10.327c-1.47,0-2.875,0.311-4.152,0.871v-8.904
			c1.535-0.916,2.959-1.998,4.215-3.255c3.873,3.88,9.229,6.281,15.145,6.281c0.321,0,3.694,0.164,4.011,0.149
			C101.471,116.247,84.687,124.203,82.316,125.149z"/>
	</g>
</g>
</svg>
