<?xml version="1.0" encoding="utf-8" standalone="no"?>
<!DOCTYPE svg PUBLIC "-//W3C//DTD SVG 1.1//EN" "http://www.w3.org/Graphics/SVG/1.1/DTD/svg11.dtd">
<!-- This logo design was originally created by @Tobaloidee (https://github.com/Tobaloidee) -->
<svg xmlns="http://www.w3.org/2000/svg" xmlns:xlink="http://www.w3.org/1999/xlink" version="1.1"
	width="320" height="320" viewBox="0 0 150 150" preserveAspectRatio="xMidYMid meet">
	<title>hBlock favicon</title>
	<g id="favicon">
		<!-- Background --><path fill="#FFFFFF" d="M 70.58682,121.73158 C 67.3231,120.43022 58.91701,116.20936 51.37281,105.16763 42.39832,92.033999 37.84765,74.092549 37.84765,51.843859 V 39.337573 l 12.12574,0.588969 c 0.578,-0.01712 1.85879,-0.07202 2.59244,-0.102058 1.71963,-0.07258 2.08917,-0.08788 2.47864,-0.08788 4.35457,0 8.44585,-1.698361 11.52441,-4.780355 l 8.43213,-8.447908 8.43147,8.447911 c 3.07652,3.082681 7.16917,4.780354 11.52306,4.780354 0.39151,0 0.76038,0.01447 2.47931,0.08788 0.73364,0.03018 2.01513,0.08493 2.59176,0.102058 l 12.12574,-0.58897 v 12.506285 c 0,22.24869 -4.55066,40.18942 -13.52447,53.323771 -7.54489,11.04173 -15.94962,15.26192 -19.21401,16.56395 l -4.41286,1.76008 z" />
		<!-- Shield     --><path fill="#FD2727" d="m 111.5005,23.846502 c -0.841,-0.025 -2.71,-0.105 -3.78,-0.149 -2.507,-0.106 -3.045,-0.128 -3.616,-0.128 -6.35,0 -12.318,-2.477 -16.806,-6.972001 l -12.297,-12.321 -12.298,12.321 c -4.489,4.496001 -10.457,6.972001 -16.808,6.972001 -0.568,0 -1.107,0.021 -3.615,0.128 -1.07,0.044 -2.938,0.124 -3.781,0.149 l -17.685,-0.859 v 18.24 c 0,32.448997 6.637,58.614997 19.726,77.770998 11.004,16.104 23.264,22.259 28.023,24.158 l 6.438,2.567 6.436,-2.567 c 4.762,-1.898 17.02,-8.054 28.023,-24.158 13.088,-19.155001 19.725,-45.322001 19.725,-77.770998 v -18.24 z M 75.0015,117.6355 c -3.687,-1.471 -29.773,-13.838 -29.773,-69.388998 0.49,0.023 5.733,-0.229 6.232,-0.229 2.61,0 5.146,-0.31 7.585,-0.88 v 39.486997 h 9.404 v -16.373 c 0.723,-2.949 3.373,-5.05 6.453,-5.05 3.665,0 6.647,2.983 6.647,6.648 v 14.276 h 9.404 v -14.276 c 0,-8.851 -7.2,-16.052 -16.052,-16.052 -2.283,0 -4.47,0.482 -6.453,1.353 V 43.349502 c 2.393,-1.425 4.595,-3.137 6.552,-5.096 6.02,6.031 14.344,9.765 23.539,9.765 0.499,0 5.742,0.252 6.232,0.229 10e-4,55.549998 -26.087,67.917998 -29.77,69.387998 z" />
	</g>
</svg>
