<?xml version="1.0" encoding="utf-8" standalone="no"?>
<!DOCTYPE svg PUBLIC "-//W3C//DTD SVG 1.1//EN" "http://www.w3.org/Graphics/SVG/1.1/DTD/svg11.dtd">
<!-- This logo design was originally created by @Tobaloidee (https://github.com/Tobaloidee) -->
<svg xmlns="http://www.w3.org/2000/svg" xmlns:xlink="http://www.w3.org/1999/xlink" version="1.1"
	width="320" height="320" viewBox="0 0 500 500" preserveAspectRatio="xMidYMid meet">
	<title>hBlock logo</title>
	<g id="logo">
		<g id="favicon">
			<!-- Background --><path fill="#FFFFFF" d="m 240.23494,286.7913 c -7.22165,-2.87952 -25.82183,-12.21903 -42.51491,-36.65111 -19.85789,-29.06084 -29.92718,-68.75995 -29.92718,-117.98971 v -27.67271 l 26.83067,1.30321 c 1.27895,-0.0379 4.11296,-0.15935 5.73631,-0.22582 3.80503,-0.1606 4.62271,-0.19445 5.48449,-0.19445 9.63538,0 18.68817,-3.75797 25.50011,-10.577514 l 18.6578,-18.692718 18.65635,18.692724 c 6.80743,6.821058 15.86325,10.577508 25.49712,10.577508 0.86629,0 1.68249,0.032 5.48598,0.19445 1.62332,0.0668 4.45888,0.18793 5.73479,0.22583 l 26.83067,-1.30322 v 27.67271 c 0,49.22976 -10.06926,88.92728 -29.92564,117.98971 -16.69461,24.43208 -35.29179,33.77011 -42.51491,36.65111 l -9.76436,3.89454 z" />
			<!-- Shield     --><path fill="#FD2727" d="m 330.76479,70.200621 c -1.86088,-0.05532 -5.99642,-0.232334 -8.36402,-0.329693 -5.54724,-0.234547 -6.73768,-0.283226 -8.00113,-0.283226 -14.05067,0 -27.25609,-5.480867 -37.1867,-15.426973 L 250.00332,26.898005 222.79149,54.160729 c -9.93283,9.948318 -23.13825,15.426973 -37.19113,15.426973 -1.25681,0 -2.44946,0.04647 -7.99892,0.283226 -2.3676,0.09736 -6.50093,0.274375 -8.36624,0.329693 l -39.13166,-1.900713 v 40.359722 c 0,71.80001 14.68571,129.69762 43.64779,172.08418 24.34859,35.63338 51.47634,49.25257 62.0066,53.45449 l 14.24539,5.68002 14.24096,-5.68002 c 10.5369,-4.19971 37.66022,-17.82111 62.0066,-53.45449 28.95986,-42.38435 43.64558,-100.28417 43.64558,-172.08418 V 68.299908 Z M 250.00332,277.72789 c -8.15824,-3.25489 -65.87883,-30.61939 -65.87883,-153.5373 1.08422,0.0509 12.68543,-0.50671 13.78957,-0.50671 5.77515,0 11.38657,-0.68593 16.78336,-1.94717 v 87.37302 h 20.80826 v -36.2286 c 1.59979,-6.52526 7.46345,-11.17415 14.27858,-11.17415 8.10956,0 14.70784,6.6005 14.70784,14.71005 v 31.58856 h 20.80827 v -31.58856 c 0,-19.58464 -15.93147,-35.51832 -35.51832,-35.51832 -5.05161,0 -9.89079,1.06653 -14.27858,2.99379 v -30.53752 c 5.295,-3.1531 10.16737,-6.94125 14.49764,-11.27594 13.32047,13.34482 31.73902,21.60706 52.08483,21.60706 1.10414,0 12.70535,0.5576 13.78957,0.50671 0.002,122.91569 -57.7228,150.28241 -65.87219,153.53508 z" />
		</g>
		<g id="text">
			<!-- h --><path fill="#FD2727" d="m 67.719386,400.02315 c -5.412528,0 -10.596272,1.14391 -15.298984,3.21076 V 368.67432 H 30.126988 v 104.42572 h 22.293414 v -38.81061 c 1.712918,-6.99443 7.999502,-11.97677 15.298984,-11.97677 8.687807,0 15.764363,7.0707 15.764363,15.76046 v 33.84587 h 22.289511 v -33.84587 c -0.003,-20.97744 -17.070573,-38.04997 -38.053874,-38.04997 z" />
			<!-- B --><path fill="#FD2727" d="m 121.58846,375.8506 h 32.6609 c 19.76901,0 35.15208,5.41839 35.15208,23.72868 0,8.49422 -4.68707,17.72171 -12.44997,20.64893 v 0.58662 c 9.66549,2.48921 17.13704,9.66746 17.13704,22.40879 0,19.47961 -16.40573,28.12048 -37.05467,28.12048 h -35.44342 v -95.4935 z m 31.63432,38.22595 c 10.54544,0 15.08585,-4.39181 15.08585,-11.27674 0,-7.4696 -4.83372,-10.25212 -14.93919,-10.25212 h -10.25212 v 21.52886 z m 2.05121,40.57046 c 11.71671,0 17.72172,-4.10241 17.72172,-12.88994 0,-8.34561 -5.86031,-11.7167 -17.72172,-11.7167 h -12.15667 v 24.60664 z" />
			<!-- l --><path fill="#FD2727" d="m 208.43913,448.78866 v -80.11434 h 21.53082 v 80.99427 c 0,4.5365 2.05119,6.00304 3.80715,6.00304 0.87992,0 1.46458,0 2.63782,-0.29134 l 2.63586,15.96185 c -2.34255,1.02659 -6.00305,1.7579 -10.83874,1.7579 -14.79253,0.003 -19.77291,-9.6655 -19.77291,-24.31138 z" />
			<!-- o --><path fill="#FD2727" d="m 246.08042,435.02075 c 0,-24.16473 16.98843,-38.08125 35.44342,-38.08125 18.30637,0 35.29677,13.91457 35.29677,38.08125 0,24.16669 -16.98844,38.08124 -35.29677,38.08124 -18.45303,0 -35.44342,-13.91455 -35.44342,-38.08124 z m 48.77137,0 c 0,-12.59468 -4.54042,-20.65089 -13.32599,-20.65089 -8.93419,0 -13.32795,8.05426 -13.32795,20.65089 0,12.59663 4.39376,20.65284 13.32795,20.65284 8.78361,0 13.32599,-8.05621 13.32599,-20.65284 z" />
			<!-- c --><path fill="#FD2727" d="m 327.36799,435.02075 c 0,-24.16473 17.72172,-38.08125 37.78599,-38.08125 8.93223,0 15.81716,3.22053 21.23555,7.7629 l -10.10547,13.91457 c -3.51579,-2.93113 -6.44497,-4.24711 -9.8141,-4.24711 -10.39683,0 -16.98845,8.05426 -16.98845,20.65089 0,12.59663 6.88298,20.65284 16.25712,20.65284 4.68513,0 9.22555,-2.34451 13.03269,-5.27369 l 8.49813,14.05926 c -7.18019,6.30028 -16.11242,8.64283 -24.02198,8.64283 -20.21093,0 -35.87948,-13.91455 -35.87948,-38.08124 z" />
			<!-- k --><path fill="#FD2727" d="m 400.01079,368.67432 h 20.94419 v 58.87683 h 0.58661 l 22.99345,-28.8518 h 23.43342 l -25.48462,29.87447 27.38917,42.76637 h -23.28676 l -16.40378,-28.26518 -9.22749,10.39682 v 17.86836 h -20.94419 z" />
		</g>
	</g>
</svg>
