<?xml version="1.0" encoding="utf-8" standalone="no"?>
<!DOCTYPE svg PUBLIC "-//W3C//DTD SVG 1.1//EN" "http://www.w3.org/Graphics/SVG/1.1/DTD/svg11.dtd">
<!-- This logo design was originally created by @Tobaloidee (https://github.com/Tobaloidee) -->
<svg xmlns="http://www.w3.org/2000/svg" xmlns:xlink="http://www.w3.org/1999/xlink" version="1.1"
	width="320" height="96" viewBox="0 0 500 150" preserveAspectRatio="xMidYMid meet">
	<title>hBlock logo</title>
	<g id="logo">
		<g id="favicon">
			<!-- Background --><path fill="#FFFFFF" d="m 60.724372,121.73158 c -3.26372,-1.30136 -11.66981,-5.52222 -19.21401,-16.56395 C 32.535872,92.033998 27.985202,74.092548 27.985202,51.843859 V 39.337573 l 12.12574,0.588969 c 0.578,-0.01712 1.85879,-0.07202 2.59244,-0.102058 1.71963,-0.07258 2.08917,-0.08788 2.47864,-0.08788 4.35457,0 8.44585,-1.698361 11.52441,-4.780356 l 8.43213,-8.447908 8.43147,8.447911 c 3.07652,3.082682 7.16917,4.780355 11.52306,4.780355 0.39151,0 0.76038,0.01447 2.47931,0.08788 0.73364,0.03018 2.01513,0.08493 2.59176,0.102058 l 12.125738,-0.58897 v 12.506285 c 0,22.248689 -4.550658,40.189419 -13.524468,53.323771 -7.54489,11.04173 -15.94962,15.26192 -19.21401,16.56395 l -4.41286,1.76008 z" />
			<!-- Shield     --><path fill="#FD2727" d="m 101.63805,23.846503 c -0.841,-0.025 -2.709998,-0.105 -3.779998,-0.149 -2.507,-0.106 -3.045,-0.128 -3.616,-0.128 -6.35,0 -12.318,-2.477 -16.806,-6.972001 l -12.297,-12.321 -12.298,12.321 c -4.489,4.496001 -10.457,6.972001 -16.808,6.972001 -0.568,0 -1.107,0.021 -3.615,0.128 -1.07,0.044 -2.938,0.124 -3.781,0.149 l -17.685,-0.859 v 18.24 c 0,32.448997 6.637,58.614997 19.726,77.770997 11.004,16.104 23.264,22.259 28.023,24.158 l 6.438,2.567 6.436,-2.567 c 4.762,-1.898 17.02,-8.054 28.023,-24.158 13.087998,-19.155 19.724998,-45.322 19.724998,-77.770997 v -18.24 z M 65.139052,117.6355 c -3.687,-1.471 -29.773,-13.838 -29.773,-69.388997 0.49,0.023 5.733,-0.229 6.232,-0.229 2.61,0 5.146,-0.31 7.585,-0.88 V 86.6245 h 9.404 v -16.373 c 0.723,-2.949 3.373,-5.05 6.453,-5.05 3.665,0 6.647,2.983 6.647,6.648 v 14.276 h 9.404 v -14.276 c 0,-8.851 -7.2,-16.052 -16.052,-16.052 -2.283,0 -4.47,0.482 -6.453,1.353 V 43.349503 c 2.393,-1.425 4.595,-3.137 6.552,-5.096 6.02,6.031 14.344,9.765 23.539,9.765 0.499,0 5.742,0.252 6.232,0.229 10e-4,55.549997 -26.087,67.917997 -29.77,69.387997 z" />
		</g>
		<g id="text">
			<!-- h --><path fill="#FD2727" d="m 172.21346,58.577619 c -4.26008,0 -8.34009,0.900342 -12.04149,2.527112 V 33.903648 h -17.54665 v 82.191162 h 17.54665 V 85.547846 c 1.3482,-5.505165 6.29623,-9.426652 12.04149,-9.426652 6.83798,0 12.40778,5.565187 12.40778,12.404704 v 26.639332 h 17.54358 V 88.525898 c -0.002,-16.510876 -13.43587,-29.948279 -29.95136,-29.948279 z" />
			<!-- B --><path fill="#FD2727" d="m 214.61261,39.551944 h 25.70667 c 15.55975,0 27.66742,4.264694 27.66742,18.676312 0,6.685612 -3.68909,13.948366 -9.7991,16.252316 v 0.461714 c 7.6075,1.959204 13.48819,7.609039 13.48819,17.637457 0,15.331967 -12.91259,22.133007 -29.16491,22.133007 H 214.61415 V 39.551944 Z m 24.89867,30.086792 c 8.30008,0 11.87374,-3.456695 11.87374,-8.875673 0,-5.879152 -3.80452,-8.069213 -11.75831,-8.069213 h -8.06921 v 16.944886 z m 1.61446,31.932104 c 9.22196,0 13.94837,-3.228912 13.94837,-10.145381 0,-6.568645 -4.61252,-9.221958 -13.94837,-9.221958 h -9.56824 v 19.367339 z" />
			<!-- l --><path fill="#FD2727" d="M 282.97084,96.959865 V 33.903648 h 16.94643 v 63.748787 c 0,3.570585 1.61445,4.724865 2.99652,4.724865 0.69257,0 1.15274,0 2.07617,-0.22931 l 2.07463,12.56322 c -1.84377,0.808 -4.72487,1.3836 -8.53093,1.3836 -11.64287,0.002 -15.56282,-7.6075 -15.56282,-19.134945 z" />
			<!-- o --><path fill="#FD2727" d="m 312.59746,86.123449 c 0,-19.01952 13.37122,-29.972904 27.89673,-29.972904 14.40854,0 27.7813,10.951845 27.7813,29.972904 0,19.021061 -13.37122,29.972901 -27.7813,29.972901 -14.52397,0 -27.89673,-10.95184 -27.89673,-29.972901 z m 38.38686,0 c 0,-9.91299 -3.57366,-16.253856 -10.48859,-16.253856 -7.0319,0 -10.49013,6.339327 -10.49013,16.253856 0,9.914528 3.45823,16.255391 10.49013,16.255391 6.91339,0 10.48859,-6.340863 10.48859,-16.255391 z" />
			<!-- c --><path fill="#FD2727" d="m 376.5771,86.123449 c 0,-19.01952 13.94837,-29.972904 29.74051,-29.972904 7.03036,0 12.44934,2.534807 16.71403,6.110009 l -7.95379,10.951845 c -2.7672,-2.307028 -5.07269,-3.342806 -7.72446,-3.342806 -8.18311,0 -13.37123,6.339327 -13.37123,16.253856 0,9.914528 5.41744,16.255391 12.79562,16.255391 3.68756,0 7.26122,-1.84531 10.25774,-4.150802 l 6.68869,11.065732 c -5.65137,4.95881 -12.68173,6.80258 -18.90717,6.80258 -15.90757,0 -28.23994,-10.95184 -28.23994,-29.972901 z" />
			<!-- k --><path fill="#FD2727" d="m 433.75263,33.903648 h 16.48471 v 46.340648 h 0.46171 l 18.09763,-22.70861 h 18.44392 l -20.05837,23.513531 21.5574,33.660453 h -18.32849 l -12.91105,-22.246895 -7.26275,8.183105 v 14.06379 h -16.48471 z" />
		</g>
	</g>
</svg>
