<?xml version="1.0" encoding="utf-8" standalone="no"?>
<!DOCTYPE svg PUBLIC "-//W3C//DTD SVG 1.1//EN" "http://www.w3.org/Graphics/SVG/1.1/DTD/svg11.dtd">
<!-- This logo design was originally created by @Tobaloidee (https://github.com/Tobaloidee) -->
<svg xmlns="http://www.w3.org/2000/svg" xmlns:xlink="http://www.w3.org/1999/xlink" version="1.1"
	width="1695" height="512" viewBox="0 0 2480 750" preserveAspectRatio="xMidYMid meet">
	<title>hBlock text</title>
	<!-- Original objects -->
	<!--
	<g id="text">
		<path id="text-h" fill-opacity="0" stroke="#FD2727" stroke-width="140" d="
			M 100 100
			V 650 V 475
			a 1 1 0 0 1 275 0
			V 650 V 475" />
		<text id="text-block" fill="#FD2727" font-family="Source Sans Pro" font-size="790" font-weight="900" x="470" y="650">
			Block
		</text>
	</g>
	-->
	<g id="text">
		<path id="text-h" fill-opacity="0" stroke="#FD2727" stroke-width="140" d="M 100,100 V 650 475 a 137.5,137.5 0 0 1 275,0 V 650 475" />
		<path id="text-block" fill="#FD2727" d="m 2051.0739,650 h 132.72 v -94.8 l 41.08,-45.82 79,140.62 h 146.94 l -148.52,-230.68 140.62,-164.32 h -146.94 l -109.02,137.46 h -3.16 v -292.3 h -132.72 z m -194.8584,9.48 c 41.08,0 91.64,-11.06 131.14,-45.82 l -52.14,-88.48 c -18.96,14.22 -41.08,25.28 -63.2,25.28 -42.66,0 -75.84,-37.92 -75.84,-97.96 0,-60.04 30.02,-97.96 80.58,-97.96 14.22,0 26.86,4.74 44.24,18.96 l 63.2,-86.9 c -30.02,-25.28 -67.94,-41.08 -115.34,-41.08 -112.18,0 -211.72,75.84 -211.72,206.98 0,131.14 86.9,206.98 199.08,206.98 z m -445.9921,0 c 101.12,0 195.92,-75.84 195.92,-206.98 0,-131.14 -94.8,-206.98 -195.92,-206.98 -101.12,0 -195.92,75.84 -195.92,206.98 0,131.14 94.8,206.98 195.92,206.98 z m 0,-109.02 c -41.08,0 -56.88,-37.92 -56.88,-97.96 0,-60.04 15.8,-97.96 56.88,-97.96 41.08,0 56.88,37.92 56.88,97.96 0,60.04 -15.8,97.96 -56.88,97.96 z m -289.7942,109.02 c 30.02,0 52.14,-4.74 66.36,-11.06 l -15.8,-99.54 c -6.32,1.58 -9.48,1.58 -14.22,1.58 -9.48,0 -22.12,-7.9 -22.12,-34.76 V 100.16 H 998.76922 v 410.8 c 0,88.48 30.01998,148.52 121.65998,148.52 z M 526.88,650 h 200.66 c 110.6,0 202.24,-45.82 202.24,-151.68 0,-67.94 -39.5,-105.86 -88.48,-120.08 v -3.16 c 39.5,-15.8 64.78,-66.36 64.78,-110.6 0,-101.12 -86.9,-127.98 -194.34,-127.98 H 526.88 Z M 662.76,337.16 v -96.38 h 45.82 c 44.24,0 64.78,12.64 64.78,44.24 0,31.6 -20.54,52.14 -64.78,52.14 z m 0,208.56 V 436.7 h 55.3 c 53.72,0 79,14.22 79,52.14 0,37.92 -25.28,56.88 -79,56.88 z" />
	</g>
</svg>
