<?xml version="1.0" encoding="utf-8" standalone="no"?>
<!DOCTYPE svg PUBLIC "-//W3C//DTD SVG 1.1//EN" "http://www.w3.org/Graphics/SVG/1.1/DTD/svg11.dtd">
<!-- This logo design was originally created by @Tobaloidee (https://github.com/Tobaloidee) -->
<svg xmlns="http://www.w3.org/2000/svg" xmlns:xlink="http://www.w3.org/1999/xlink" version="1.1"
	width="1024" height="768" viewBox="0 0 4000 3000" preserveAspectRatio="xMidYMid meet">
	<title>hBlock logo (b)</title>
	<g id="shield">
		<path id="shield-shape" fill="#FFFFFF" stroke="#FD2727" stroke-width="203.8" d="m 2000.0003,210.08969 c -203.8014,244.56163 -203.8014,285.3219 -611.4041,228.25752 0,953.79029 203.8014,1035.31079 611.4041,1320.63269 407.6027,-285.3219 611.4041,-366.8424 611.4041,-1320.63269 -407.6027,57.06438 -407.6027,16.30411 -611.4041,-228.25752 z" />
		<path id="shield-content" fill-opacity="0" stroke="#FD2727" stroke-width="203.8" d="M 1804.351,413.89105 V 1245.4005 992.6869 a 195.6493,195.6493 0 0 1 391.2986,0 v 252.7136 -252.7136" />
	</g>
	<g id="text">
		<path id="text-h" fill-opacity="0" stroke="#FD2727" stroke-width="221.34" d="m 197.01536,2064.5458 v 869.5506 -276.6753 a 217.38764,217.38764 0 0 1 434.77528,0 v 276.6753 -276.6753" />
		<path id="text-block" fill="#FD2727" d="m 3281.6652,2934.0964 h 209.8304 v -149.8789 l 64.9476,-72.4415 124.8991,222.3204 h 232.3123 l -234.8103,-364.7053 222.3204,-259.7902 h -232.3123 l -172.3608,217.3244 h -4.996 v -462.1266 h -209.8304 z m -308.0713,14.9878 c 64.9475,0 144.8829,-17.4859 207.3325,-72.4414 l -82.4334,-139.887 c -29.9757,22.4818 -64.9475,39.9677 -99.9193,39.9677 -67.4456,0 -119.9031,-59.9516 -119.9031,-154.8749 0,-94.9233 47.4616,-154.8749 127.3971,-154.8749 22.4818,0 42.4656,7.494 69.9434,29.9759 l 99.9193,-137.3891 c -47.4617,-39.9677 -107.4131,-64.9475 -182.3527,-64.9475 -177.3566,0 -334.7295,119.9032 -334.7295,327.2356 0,207.3325 137.389,327.2356 314.7457,327.2356 z m -705.1139,0 c 159.8707,0 309.7496,-119.9031 309.7496,-327.2356 0,-207.3324 -149.8789,-327.2356 -309.7496,-327.2356 -159.8708,0 -309.7499,119.9032 -309.7499,327.2356 0,207.3325 149.8791,327.2356 309.7499,327.2356 z m 0,-172.3607 c -64.9477,0 -89.9275,-59.9516 -89.9275,-154.8749 0,-94.9233 24.9798,-154.8749 89.9275,-154.8749 64.9474,0 89.9272,59.9516 89.9272,154.8749 0,94.9233 -24.9798,154.8749 -89.9272,154.8749 z m -458.1651,172.3607 c 47.4617,0 82.4334,-7.494 104.9153,-17.4859 l -24.9798,-157.3728 c -9.9919,2.498 -14.988,2.498 -22.4819,2.498 -14.9879,0 -34.9717,-12.4899 -34.9717,-54.9556 v -656.9692 h -214.8263 v 649.4753 c 0,139.8869 47.4615,234.8102 192.3444,234.8102 z m -938.40181,-14.9878 h 317.24361 c 174.8587,0 319.7416,-72.4415 319.7416,-239.8063 0,-107.4132 -62.4494,-167.3648 -139.887,-189.8466 v -4.996 c 62.4496,-24.9798 102.4174,-104.9151 102.4174,-174.8587 0,-159.8708 -137.3891,-202.3365 -307.2518,-202.3365 H 871.91309 Z M 1086.7395,2439.496 v -152.3769 h 72.4414 c 69.9434,0 102.4173,19.9838 102.4173,69.9435 0,49.9596 -32.4739,82.4334 -102.4173,82.4334 z m 0,329.7336 v -172.3608 h 87.4293 c 84.9315,0 124.8991,22.4819 124.8991,82.4334 0,59.9516 -39.9676,89.9274 -124.8991,89.9274 z" />
	</g>
</svg>
