<?xml version="1.0" encoding="utf-8" standalone="no"?>
<!DOCTYPE svg PUBLIC "-//W3C//DTD SVG 1.1//EN" "http://www.w3.org/Graphics/SVG/1.1/DTD/svg11.dtd">
<!-- This logo design was originally created by @Tobaloidee (https://github.com/Tobaloidee) -->
<svg xmlns="http://www.w3.org/2000/svg" xmlns:xlink="http://www.w3.org/1999/xlink" version="1.1"
	width="1024" height="320" viewBox="0 0 4000 1250" preserveAspectRatio="xMidYMid meet">
	<title>hBlock logo (a)</title>
	<g id="shield">
		<path id="shield-shape" fill="#FFFFFF" stroke="#FD2727" stroke-width="133.2" d="M 542.1337,130.21328 C 408.93493,290.05182 408.93493,316.69157 142.53737,279.39591 c 0,623.37033 133.19878,676.64981 399.59633,863.12809 C 808.53125,956.04572 941.73003,902.76624 941.73003,279.39591 675.33248,316.69157 675.33248,290.05182 542.1337,130.21328 Z" />
		<path id="shield-content" fill-opacity="0" stroke="#FD2727" stroke-width="133.2" d="M 414.26288,263.41206 V 806.86307 641.69659 a 127.87083,127.87083 0 0 1 255.74165,0 V 806.86307 641.69659" />
	</g>
	<g id="text">
		<path id="text-h" fill-opacity="0" stroke="#FD2727" stroke-width="155.2" d="M 1318.0913,314.89688 V 924.59422 730.59958 a 152.4244,152.4244 0 0 1 304.8488,0 V 924.59422 730.59958" />
		<path id="text-block" fill="#FD2727" d="m 3480.9359,924.59422 h 147.1254 V 819.50454 l 45.5389,-50.79334 87.5747,155.88302 h 162.8889 l -164.6404,-255.71818 155.883,-182.15538 h -162.889 l -120.853,152.37998 h -3.5031 V 315.07425 h -147.1254 z m -216.0084,10.5089 c 45.5388,0 101.5867,-12.2604 145.374,-50.7933 l -57.7993,-98.08367 c -21.0179,15.76344 -45.5388,28.0239 -70.0597,28.0239 -47.2904,0 -84.0718,-42.03586 -84.0718,-108.59264 0,-66.55677 33.2785,-108.59262 89.3262,-108.59262 15.7635,0 29.7754,5.25448 49.0418,21.01793 l 70.0598,-96.33218 c -33.2784,-28.02391 -75.3142,-45.53884 -127.8591,-45.53884 -124.356,0 -234.7001,84.07171 -234.7001,229.44571 0,145.37402 96.3321,229.44571 220.6882,229.44571 z m -494.4003,0 c 112.0956,0 217.1851,-84.07169 217.1851,-229.44571 0,-145.374 -105.0895,-229.44571 -217.1851,-229.44571 -112.0956,0 -217.1854,84.07171 -217.1854,229.44571 0,145.37402 105.0898,229.44571 217.1854,229.44571 z m 0,-120.85307 c -45.5389,0 -63.0539,-42.03586 -63.0539,-108.59264 0,-66.55677 17.5149,-108.59262 63.0539,-108.59262 45.5387,0 63.0537,42.03585 63.0537,108.59262 0,66.55678 -17.515,108.59264 -63.0537,108.59264 z m -321.2487,120.85307 c 33.2785,0 57.7993,-5.2545 73.5628,-12.2604 l -17.515,-110.34417 c -7.0059,1.7515 -10.509,1.7515 -15.7634,1.7515 -10.509,0 -24.5209,-8.75747 -24.5209,-38.53286 V 315.07425 H 2314.4135 V 770.4627 c 0,98.08372 33.2783,164.64042 134.865,164.64042 z m -657.9733,-10.5089 h 222.4398 c 122.6045,0 224.1911,-50.7934 224.1911,-168.14347 0,-75.31424 -43.7872,-117.35011 -98.0838,-133.11355 v -3.50299 c 43.7875,-17.51494 71.8115,-73.56275 71.8115,-122.60459 0,-112.09561 -96.3323,-141.87101 -215.4339,-141.87101 H 1791.3051 Z M 1941.9338,577.79835 V 470.95721 h 50.7932 c 49.0417,0 71.8112,14.01195 71.8112,49.04183 0,35.02989 -22.7695,57.79931 -71.8112,57.79931 z m 0,231.19722 V 688.14248 h 61.3021 c 59.5509,0 87.5747,15.76345 87.5747,57.7993 0,42.03586 -28.0239,63.05379 -87.5747,63.05379 z" />
	</g>
</svg>
